<?xml version="1.0" encoding="UTF-8" standalone="no"?>
<svg
   xmlns:dc="http://purl.org/dc/elements/1.1/"
   xmlns:cc="http://creativecommons.org/ns#"
   xmlns:rdf="http://www.w3.org/1999/02/22-rdf-syntax-ns#"
   xmlns:svg="http://www.w3.org/2000/svg"
   xmlns="http://www.w3.org/2000/svg"
   xmlns:sodipodi="http://sodipodi.sourceforge.net/DTD/sodipodi-0.dtd"
   xmlns:inkscape="http://www.inkscape.org/namespaces/inkscape"
   viewBox="0 0 165 80"
   height="80"
   width="165"
   id="svg815"
   version="1.1"
   sodipodi:docname="signature1.svg"
   inkscape:version="0.92.2 (5c3e80d, 2017-08-06)">
  <sodipodi:namedview
     pagecolor="#000000"
     bordercolor="#666666"
     borderopacity="1"
     objecttolerance="10"
     gridtolerance="10"
     guidetolerance="10"
     inkscape:pageopacity="0"
     inkscape:pageshadow="2"
     inkscape:window-width="1366"
     inkscape:window-height="705"
     id="namedview1438"
     showgrid="false"
     inkscape:snap-bbox="true"
     inkscape:object-paths="false"
     inkscape:zoom="1.0424243"
     inkscape:cx="9437.8508"
     inkscape:cy="50.365449"
     inkscape:window-x="-8"
     inkscape:window-y="-8"
     inkscape:window-maximized="1"
     inkscape:current-layer="svg815" />
  <metadata
     id="metadata821">
    <rdf:RDF>
      <cc:Work
         rdf:about="">
        <dc:format>image/svg+xml</dc:format>
        <dc:type
           rdf:resource="http://purl.org/dc/dcmitype/StillImage" />
        <dc:title />
      </cc:Work>
    </rdf:RDF>
  </metadata>
  <defs
     id="defs819" />
  <path
     style="fill:#000000"
     d="M -0.1744186,42.267442 V 2.2674415 H 82.325582 164.82558 v 40.0000005 40 H 82.325582 -0.1744186 Z"
     id="path4540" />
  <path
     style="fill:#000000"
     d="m 22.533894,57.014091 c -1.845367,-9.523676 -4.501817,-16.379836 -6.22668,-16.070741 -0.539898,0.09675 -1.769132,0.482395 -2.731632,0.856989 -2.359667,0.918356 -2.245161,-1.335976 0.230244,-4.532897 2.620086,-3.383773 4.979575,-1.886736 7.225986,4.584707 l 1.706229,4.915293 0.04377,-3.815741 c 0.09906,-8.635351 4.517546,-9.630702 6.690864,-1.507247 1.051906,3.931828 1.165439,4.04621 1.254731,1.264118 0.054,-1.682379 0.773475,-3.932379 1.598841,-5 1.476666,-1.910085 1.530718,-1.905751 3.379623,0.270994 1.033425,1.216668 2.442906,5.266668 3.132178,9 1.4117,7.646245 2.64209,10.619406 4.037706,9.756867 0.522405,-0.322864 0.949827,-1.630367 0.949827,-2.905563 0,-1.275196 0.647634,-2.856027 1.439186,-3.512957 1.181349,-0.980432 1.793264,-0.509693 3.41557,2.627556 l 1.976385,3.821973 1.06852,-2.773254 c 0.587686,-1.525289 0.963179,-3.550289 0.834429,-4.5 -0.419612,-3.095231 1.73936,-2.808882 2.76591,0.366849 1.447813,4.478948 2.876602,4.210528 3.852397,-0.72373 0.694983,-3.514288 1.064328,-4.036231 2,-2.82632 0.631182,0.816177 2.340973,2.246729 3.799536,3.179004 2.611604,1.669268 2.663953,1.653851 3.442319,-1.013752 0.434712,-1.489838 0.862215,-3.383797 0.950007,-4.208797 0.08779,-0.825 0.236131,-1.95 0.329643,-2.5 0.09351,-0.55 1.013282,0.856983 2.043933,3.126629 2.595734,5.716188 3.849674,6.160505 4.659866,1.651161 0.773137,-4.303107 2.340179,-7.793596 2.39189,-5.32779 0.02365,1.127778 0.297076,1.183333 1.230409,0.25 1.478821,-1.478821 5.450913,-1.573851 6.330011,-0.151442 0.435503,0.70466 1.165309,0.622667 2.225201,-0.25 1.397311,-1.150482 1.511199,-0.899448 0.998744,2.201442 -0.914141,5.531511 -2.56936,9 -4.294947,9 -2.525472,0 -5.459009,-1.931435 -5.459009,-3.594201 0,-0.838108 -0.45,-1.245718 -1,-0.905799 -0.55,0.339919 -1,1.661376 -1,2.936572 0,1.275196 -0.629016,2.840576 -1.397814,3.478621 -1.107245,0.918932 -1.834803,0.60454 -3.5,-1.512414 -1.156202,-1.469873 -2.126659,-3.39931 -2.15657,-4.287638 -0.02991,-0.888327 -0.817411,0.362879 -1.75,2.780458 -2.166139,5.61535 -4.495285,7.233303 -6.92093,4.807658 -1.683788,-1.683788 -1.662208,-1.789157 0.481236,-2.34968 2.628487,-0.687365 2.828319,-1.623811 0.719912,-3.373633 -1.878208,-1.558774 -1.992118,-1.430885 -3.129242,3.513277 -1.058559,4.602562 -4.116174,6.103901 -5.062355,2.4857 -0.536032,-2.049787 -0.660175,-1.990107 -1.876195,0.901952 -1.634259,3.886758 -3.729322,3.284497 -5.69198,-1.636254 l -1.435734,-3.599652 -0.697942,4.654208 c -0.773318,5.15686 -1.939553,6.479218 -4.119014,4.670427 -1.512107,-1.254938 -2.50442,-4.435493 -4.500402,-14.424666 -1.111304,-5.56168 -1.287576,-5.825916 -2.668412,-4 -1.49002,1.970291 -1.362288,10.336914 0.277935,18.205064 0.423048,2.029358 0.284104,3.25 -0.369941,3.25 -1.238997,0 -2.467686,-3.696558 -4.737683,-14.253504 -0.916955,-4.264427 -2.071668,-8.003484 -2.56603,-8.309017 -0.513561,-0.317398 -0.898839,4.827779 -0.898839,12.003504 0,6.907459 -0.3375,12.557509 -0.75,12.555666 -0.4125,-0.0018 -1.55626,-4.164343 -2.541688,-9.25 z M 86.384889,45.363403 c -0.891582,-1.44261 -4.249481,-1.406287 -5.153065,0.05574 -0.391486,0.633437 0.123984,1.762838 1.145488,2.50978 1.570234,1.148183 2.075789,1.139568 3.2711,-0.05574 0.7776,-0.777601 1.109015,-1.907002 0.736477,-2.50978 z m 21.782531,0.430921 c -2.59373,-1.816721 -5.03313,-7.719024 -5.90424,-14.285709 -0.51116,-3.853353 -0.20422,-5.980343 1.37976,-9.561195 2.39242,-5.40846 5.71023,-6.874759 9.676,-4.276287 4.38471,2.872975 5.91802,6.406431 6.47941,14.931584 0.30284,4.598858 1.00593,8.164147 1.65201,8.377126 1.9842,0.654095 4.40786,-7.111807 3.3599,-10.765829 -0.50998,-1.778203 -1.22724,-6.543629 -1.59389,-10.589834 -0.56446,-6.229042 -0.43198,-7.356738 0.86429,-7.356738 2.21943,0 2.74446,2.164545 2.74866,11.331787 0.003,6.610078 0.41479,8.835859 2.15861,11.668213 l 2.15487,3.5 1.45251,-3.5 c 1.19762,-2.885824 1.2573,-4.903832 0.34011,-11.5 -1.48182,-10.656781 -1.42218,-13.5 0.28317,-13.5 2.07608,0 2.6066,2.302706 2.61073,11.331787 0.003,6.378156 0.43799,8.880448 1.9853,11.418213 1.08986,1.7875 2.19956,3.25 2.466,3.25 0.26644,0 1.14171,-2.1375 1.94505,-4.75 l 1.46061,-4.75 0.0696,4.1849 c 0.14941,8.977155 -3.58381,12.20668 -6.65812,5.759788 l -1.69541,-3.555312 -1.03841,4.296421 c -1.2432,5.143734 -3.91971,6.266212 -5.68792,2.385408 -1.63992,-3.599231 -2.49218,-3.213403 -3.24062,1.467063 -0.82695,5.171463 -3.19416,6.220839 -6.02486,2.670799 l -2.0952,-2.627628 -1.6984,2.959281 c -1.87153,3.260964 -4.24085,3.733635 -7.44957,1.486162 z m 5.25666,-6.063326 c 0.35014,-1.395044 0.4425,-5.220044 0.20524,-8.5 -0.23725,-3.279956 -0.17765,-5.959709 0.13245,-5.955008 0.3101,0.0047 1.45813,2.817202 2.55118,6.25 2.15661,6.772929 3.47906,5.044204 1.56864,-2.050545 -3.74588,-13.91113 -15.74873,-10.981554 -13.60402,3.320379 1.18052,7.872321 7.67532,12.796878 9.14651,6.935174 z m 12.09449,-20.194524 c -0.25354,-0.972968 -0.47766,-0.419032 -0.49804,1.230968 -0.0204,1.65 0.18706,2.446064 0.46099,1.769032 0.27392,-0.677033 0.29059,-2.027033 0.037,-3 z m 9,-2 c -0.25354,-0.972968 -0.47766,-0.419032 -0.49804,1.230968 -0.0204,1.65 0.18706,2.446064 0.46099,1.769032 0.27392,-0.677033 0.29059,-2.027033 0.0371,-3 z M 66.825582,33.458572 c 0,-0.994879 0.660688,-2.682379 1.468197,-3.75 1.436666,-1.899444 1.468879,-1.894567 1.5,0.227083 0.04116,2.806097 -0.941865,5.331787 -2.075186,5.331787 -0.491156,0 -0.893011,-0.813992 -0.893011,-1.80887 z"
     id="path4538" />
  <path
     style="fill:#000000"
     d="m 23.825582,63.641227 c 0,-4.187555 -3.951761,-19.682469 -5.572241,-21.84884 -1.243989,-1.663052 -1.787253,-1.781531 -3.438997,-0.75 -2.491884,1.556208 -2.988762,1.539478 -2.988762,-0.100631 0,-0.729127 1.13096,-2.388167 2.513244,-3.686756 3.090065,-2.902966 4.049454,-2.146362 6.584063,5.192395 l 1.837401,5.320047 0.03265,-4.168213 c 0.04247,-5.42215 0.834737,-7.331787 3.04181,-7.331787 1.831946,0 3.915756,4.300569 4.069783,8.399223 0.09572,2.547142 0.547085,1.357431 1.384473,-3.649223 0.452739,-2.70688 1.126283,-3.75 2.421378,-3.75 2.183452,0 3.504545,2.725054 5.114876,10.550594 0.673344,3.272173 1.646454,6.74951 2.162467,7.727414 1.09797,2.080781 2.837859,1.378233 2.837859,-1.145895 0,-0.96242 0.628053,-2.608768 1.395674,-3.658552 1.3144,-1.797549 1.492897,-1.677654 3.065214,2.058871 1.607944,3.821188 1.7242,3.89378 3.151048,1.967568 0.81483,-1.1 1.364592,-3.125 1.221695,-4.5 -0.391461,-3.766757 1.338232,-3.944606 2.577149,-0.264985 1.507283,4.476675 2.938127,4.209152 3.915293,-0.732038 0.668368,-3.379706 1.050186,-3.908544 2,-2.770101 0.64566,0.773885 2.33531,2.123578 3.754779,2.999317 2.540782,1.567532 2.599977,1.539366 3.81262,-1.81414 0.677472,-1.873517 0.952031,-3.859017 0.610131,-4.412223 -0.3419,-0.553207 -0.231681,-1.00583 0.244932,-1.00583 0.476613,0 1.660727,1.8 2.631365,4 2.06812,4.687499 3.344347,5.067872 4.193993,1.25 1.133797,-5.094699 1.545116,-6.209972 2.237047,-6.065649 0.378983,0.07905 1.996576,-0.221449 3.594651,-0.667772 2.240602,-0.625773 3.192971,-0.418482 4.161263,0.905736 1.181325,1.615559 1.323535,1.609487 2.40186,-0.102541 0.93385,-1.48265 1.031427,-1.108563 0.526714,2.019299 -0.880087,5.454167 -2.546593,8.660927 -4.500955,8.660927 -1.875842,0 -4.994473,-3.015145 -4.994473,-4.828741 0,-0.644192 -0.422836,-1.171259 -0.939635,-1.171259 -0.516799,0 -1.079299,1.683758 -1.25,3.741683 -0.436763,5.265501 -3.105728,5.538665 -5.650536,0.578323 l -1.952124,-3.805082 -1.137817,4.225532 c -1.235693,4.589013 -3.761239,6.721524 -6.12377,5.170765 -1.233534,-0.809688 -1.188863,-1.146394 0.303882,-2.290467 2.19507,-1.682351 2.235783,-3.220364 0.106872,-4.037304 -2.092982,-0.803152 -2.149666,-0.731165 -3.126551,3.970613 -0.946897,4.557449 -3.651895,5.826592 -4.801537,2.252807 -0.739409,-2.29853 -0.745442,-2.296928 -1.668771,0.44313 -1.53664,4.560108 -4.3981,3.358143 -6.546793,-2.75 -0.77032,-2.189808 -1.078152,-2.459872 -1.13985,-1 -0.04649,1.1 -0.554252,3.691432 -1.128363,5.758737 -0.902072,3.248247 -1.297299,3.623089 -2.910065,2.759964 -1.327381,-0.710393 -2.491753,-3.744631 -4.032672,-10.508737 -1.191546,-5.23048 -2.559117,-9.509964 -3.039046,-9.509964 -2.183981,0 -2.36085,12.119259 -0.305866,20.958219 0.528947,2.275122 0.429321,2.384415 -0.949626,1.041781 -1.164188,-1.133531 -5.707732,-18.234356 -5.707732,-21.482555 0,-0.284595 -0.45,-0.517445 -1,-0.517445 -0.613333,0 -1,4.833333 -1,12.5 0,7.666667 -0.386667,12.5 -1,12.5 -0.55,0 -1,-1.181797 -1,-2.626215 z m 62.5,-16.88748 c 0,-1.423503 -0.779188,-2.07596 -2.75,-2.302727 -2.964821,-0.341141 -3.713315,1.453107 -1.520813,3.645609 1.768553,1.768553 4.270813,0.981762 4.270813,-1.342882 z m 21.090798,-1.804594 c -3.01316,-3.013162 -5.00177,-9.503591 -4.995,-16.302684 0.006,-5.72298 2.1068,-9.830768 5.91613,-11.566415 5.68089,-2.588386 12.08397,6.988088 11.26617,16.849723 -0.31391,3.785283 -0.0394,5.705866 0.93071,6.510961 3.42534,2.842784 5.36718,-4.619038 3.6884,-14.173296 -1.63957,-9.331089 -1.71018,-12.688537 -0.28541,-13.569098 1.9978,-1.234706 2.85725,1.923026 2.87663,10.569098 0.0155,6.932237 0.4165,9.145549 2.17392,12 l 2.15487,3.5 1.45961,-3.5 c 1.24076,-2.97522 1.27357,-4.9735 0.21884,-13.327445 -0.94385,-7.47566 -0.96218,-10.106046 -0.0766,-10.991641 2.05,-2.0499998 3.04914,1.309118 3.06934,10.319086 0.015,6.690082 0.44098,9.192028 2.00061,11.75 1.08986,1.7875 2.19956,3.25 2.466,3.25 0.26644,0 1.14171,-2.1375 1.94505,-4.75 l 1.46061,-4.75 -0.03,4 c -0.0696,9.268171 -3.10888,12.114004 -6.40222,5.994687 l -1.92846,-3.583228 -1.04668,4.289566 c -1.29611,5.311769 -3.38814,5.868014 -5.93306,1.577529 l -1.94468,-3.278554 -0.82923,4.161943 c -1.14192,5.731405 -2.96985,7.087908 -5.66005,4.200316 -1.14746,-1.23166 -2.087,-2.717029 -2.08785,-3.30082 -8.6e-4,-0.583792 -0.78836,0.513561 -1.75,2.438561 -2.20158,4.407064 -5.32549,5.01387 -8.65765,1.681711 z m 5.80221,-4.263498 c 0.33385,-0.869984 0.63736,-4.807484 0.67448,-8.75 l 0.0675,-7.168213 1.22718,4.5 c 0.67496,2.475 1.7559,5.4 2.4021,6.5 1.08439,1.845911 1.17726,1.768358 1.20532,-1.006602 0.0742,-7.339854 -4.15633,-14.493398 -8.57132,-14.493398 -1.26336,0 -3.20971,1.208028 -4.43075,2.75 -1.80569,2.280293 -2.08861,3.627495 -1.65644,7.887482 0.70545,6.953816 3.07523,11.362518 6.10761,11.362518 1.30203,0 2.64048,-0.711804 2.97432,-1.581787 z m 12.31425,-21.656554 c -0.23919,-1.243912 -0.44398,-0.461659 -0.45508,1.738341 -0.0111,2.2 0.18461,3.217747 0.4349,2.261659 0.25029,-0.956087 0.25937,-2.756087 0.0202,-4 z m 9,-2 c -0.23919,-1.243912 -0.44398,-0.46166 -0.45508,1.738341 -0.0111,2.2 0.18461,3.217747 0.4349,2.261659 0.25029,-0.956087 0.25937,-2.756087 0.0202,-4 z M 66.825582,33.432563 c 0,-1.855887 1.206721,-4.165121 2.17654,-4.165121 1.390486,0 0.559295,4.265677 -0.92654,4.755005 -0.6875,0.226414 -1.25,-0.03903 -1.25,-0.589884 z"
     id="path4536" />
  <path
     style="fill:#000000"
     d="m 23.505004,60.47442 c -0.807196,-7.722831 -4.436382,-19.176484 -6.30322,-19.892857 -0.83085,-0.318827 -2.020389,-0.06993 -2.643419,0.553096 -0.623031,0.623031 -1.492783,1.132783 -1.932783,1.132783 -1.441925,0 -0.840793,-1.842149 1.45,-4.443478 2.931069,-3.328399 4.453819,-2.309044 6.829918,4.572063 l 1.85479,5.371415 0.03265,-4.05887 c 0.01796,-2.232379 0.680143,-4.932379 1.471528,-6 1.277751,-1.723756 1.604353,-1.773155 2.916525,-0.44113 0.812704,0.825 1.917016,3.525 2.454026,6 0.968776,4.464943 0.977217,4.472275 1.083475,0.94113 0.0589,-1.957379 0.782392,-4.432379 1.607758,-5.5 1.47748,-1.911138 1.529348,-1.907384 3.35693,0.24297 1.020945,1.201254 2.415243,5.026254 3.098441,8.5 1.99022,10.119348 4.268366,12.763726 5.471404,6.350979 0.909919,-4.850284 2.261824,-5.214536 3.991269,-1.075392 0.813576,1.947172 1.899711,3.540313 2.413628,3.540313 1.133018,0 2.13544,-3.451541 2.154003,-7.416667 0.01571,-3.35598 1.067547,-2.739416 2.513655,1.473452 1.421874,4.142269 2.820763,3.720015 4.151825,-1.253227 0.633504,-2.366957 1.196004,-3.785507 1.25,-3.152334 0.054,0.633173 1.665332,2.07587 3.580747,3.205992 l 3.482572,2.054768 1.327609,-4.553058 1.32761,-4.553059 1.609373,4.097067 c 1.867572,4.754374 3.474957,5.252803 4.344157,1.347066 1.172528,-5.268738 1.462818,-5.917256 2.690597,-6.0109 0.67953,-0.05183 2.180926,-0.386769 3.336434,-0.744313 1.294879,-0.40067 2.681545,-0.06946 3.614286,0.86328 1.168528,1.168528 1.788268,1.243186 2.719838,0.327647 0.939274,-0.923108 1.062066,-0.52129 0.554431,1.814286 -1.225781,5.639697 -2.725189,8.5 -4.455812,8.5 -1.873082,0 -4.238759,-2.334945 -5.572389,-5.5 -0.677564,-1.608037 -0.95233,-1.119837 -1.402,2.491056 -0.764264,6.137112 -3.414012,6.668599 -5.872288,1.177863 l -1.783433,-3.983426 -1.742902,4.907254 c -1.44671,4.073304 -2.160769,4.907253 -4.201779,4.907253 -2.94917,0 -3.283005,-1.971725 -0.458876,-2.710251 2.555895,-0.668382 2.54802,-1.92609 -0.02067,-3.300809 -2.578448,-1.379944 -3.979333,-0.503966 -3.979333,2.48829 0,5.474872 -2.816794,7.422262 -4.733885,3.27277 -1.036427,-2.243318 -1.041658,-2.241833 -1.761223,0.5 -1.282183,4.885637 -4.894945,2.936548 -6.200742,-3.345308 -0.70143,-3.3744 -0.717228,-3.355846 -1.775586,2.085397 -0.712538,3.663313 -1.601749,5.592906 -2.672384,5.799092 -1.949389,0.375418 -2.577659,-1.055153 -4.881081,-11.114225 -1.980201,-8.647561 -2.605865,-9.818134 -4.086737,-7.645996 -1.047815,1.536932 -0.53968,15.609259 0.71775,19.877412 0.477709,1.62151 0.355193,2.187747 -0.375633,1.736072 -1.317266,-0.814115 -2.539514,-4.67369 -4.716132,-14.892444 -0.907923,-4.2625 -2.070073,-7.75 -2.582558,-7.75 -0.523697,0 -0.931789,5.229745 -0.931789,11.940983 0,12.689814 -1.32127,16.82686 -2.320578,7.265995 z M 86.74962,47.409377 c 0.796637,-1.488528 0.555032,-2.055013 -1.214816,-2.848341 -3.916302,-1.755471 -6.344675,0.670953 -3.509222,3.506406 1.733631,1.733631 3.581828,1.476175 4.724038,-0.658065 z m 22.37851,-1.338979 c -4.38202,-2.11715 -7.95371,-13.940526 -6.36037,-21.054743 0.97104,-4.335644 4.85011,-8.748213 7.69051,-8.748213 2.59498,0 7.14785,5.471265 8.38927,10.081543 0.65128,2.418666 0.97156,6.283568 0.71174,8.58867 -0.76392,6.777542 2.43072,8.573867 4.86915,2.737885 1.17911,-2.822023 1.28968,-4.697475 0.51584,-8.75 -1.7665,-9.25097 -2.13222,-14.131265 -1.17122,-15.629138 1.7105,-2.666086 2.46738,-0.07351 3.05149,10.452319 0.45959,8.281945 0.96449,10.820858 2.48633,12.50247 l 1.90964,2.110121 1.42484,-2.719404 c 1.35147,-2.579377 1.17236,-11.603932 -0.40244,-20.277148 -0.51026,-2.810271 0.99475,-6.0185724 2.23943,-4.773894 0.42103,0.421027 1.02502,5.442061 1.3422,11.157855 0.45512,8.201502 0.97149,10.828589 2.44941,12.461666 2.20428,2.435708 2.32508,2.35856 4.09999,-2.618536 1.12134,-3.144381 1.37067,-3.379878 1.40217,-1.324409 0.0625,4.080435 -1.97554,10.157788 -3.26464,9.73487 -0.65224,-0.21398 -2.1473,-1.8076 -3.32236,-3.541377 l -2.13647,-3.152321 -1.12793,4.479414 c -0.62036,2.463678 -1.53883,4.479414 -2.04105,4.479414 -0.50222,0 -2.00583,-1.396224 -3.34137,-3.102721 l -2.42824,-3.102721 -0.63529,3.972849 c -0.95371,5.964206 -2.84761,6.978667 -6.01067,3.219592 l -2.5835,-3.070314 -0.64453,2.568035 c -0.3545,1.412419 -1.46319,3.006165 -2.46377,3.541658 -2.1088,1.128595 -1.82117,1.142421 -4.64816,-0.223422 z m 4.79019,-8.08814 c 0.051,-1.768149 0.0599,-5.239816 0.0198,-7.714816 l -0.073,-4.5 1.3124,4.038886 c 0.72182,2.221387 1.86265,4.921387 2.53519,6 1.0335,1.657521 1.1585,1.13685 0.80747,-3.363378 -0.60933,-7.811693 -4.99038,-13.071038 -9.86837,-11.846739 -5.83167,1.463655 -6.60799,14.377606 -1.21418,20.197619 3.12706,3.374155 6.3425,1.979175 6.4807,-2.811572 z m 11.61299,-19.964816 c -0.23835,-1.2375 -0.43337,-0.225 -0.43337,2.25 0,2.475 0.19502,3.4875 0.43337,2.25 0.23836,-1.2375 0.23836,-3.2625 0,-4.5 z m 9,-2 c -0.23835,-1.2375 -0.43337,-0.225 -0.43337,2.25 0,2.475 0.19502,3.4875 0.43337,2.25 0.23836,-1.2375 0.23836,-3.2625 0,-4.5 z M 67.825582,31.826459 c 0,-1.407459 0.45,-2.559017 1,-2.559017 0.55,0 1,0.873442 1,1.940983 0,1.067541 -0.45,2.219098 -1,2.559017 -0.567158,0.350523 -1,-0.489616 -1,-1.940983 z"
     id="path4534" />
  <path
     style="fill:#ff0000"
     d="M 23.082202,58.017442 C 21.573554,48.858885 20.234065,44.20108 18.395756,41.721249 17.16246,40.057567 16.643377,39.953057 14.900055,41.017442 c -3.858475,2.355791 -4.256293,0.735475 -0.804641,-3.27731 2.261571,-2.629233 2.276433,-2.631543 4.083443,-0.63482 0.997486,1.10221 2.410823,4.177093 3.14075,6.833074 l 1.32714,4.829056 0.08942,-4.55887 c 0.18617,-9.49175 5.273947,-10.330787 6.72697,-1.109361 l 0.735572,4.668231 0.791727,-4.428291 c 1.486688,-8.315341 4.80743,-7.719423 6.841991,1.227819 2.465398,10.8419 3.107392,12.700472 4.387039,12.700472 0.724237,0 1.797317,-1.4625 2.384621,-3.25 1.006516,-3.0634 1.036188,-2.99163 0.516801,1.25 -1.139379,9.304851 -4.476868,7.354344 -6.927199,-4.048418 -0.927665,-4.31694 -2.064988,-8.434567 -2.527385,-9.150282 -2.438865,-3.774963 -3.858393,9.110915 -1.922176,17.4487 0.48035,2.068497 0.486936,3.75 0.01469,3.75 -0.942375,0 -2.12412,-3.944409 -4.298826,-14.348549 -1.544866,-7.390869 -3.530567,-10.863498 -3.774812,-6.601451 -0.07722,1.3475 -0.0281,7.0625 0.109153,12.7 0.137255,5.6375 -0.148116,10.25 -0.634158,10.25 -0.486041,0 -1.421129,-3.2625 -2.077973,-7.25 z m 0.426494,-7.9375 c -0.319226,-0.797733 -0.556183,-0.560776 -0.604167,0.604167 -0.04342,1.054166 0.192928,1.644791 0.52522,1.3125 0.332291,-0.332292 0.367818,-1.194792 0.07895,-1.916667 z m 24.842566,6.23716 c -1.9682,-3.80608 -1.924764,-6.432888 0.0463,-2.79966 2.417667,4.456455 4.428025,2.943797 4.428025,-3.331787 0,-4.051687 1.638237,-3.66011 2.434022,0.581787 0.73711,3.929135 3.495572,4.865609 3.681979,1.25 0.09346,-1.812795 0.207825,-1.894583 0.588557,-0.420905 0.708292,2.741552 -0.552391,6.670905 -2.140277,6.670905 -0.768688,0 -1.817594,-1.2375 -2.330902,-2.75 l -0.933288,-2.75 -0.729501,3.25 c -0.908247,4.046335 -3.041892,4.17307 -5.04491,0.29966 z m 13.47432,-1.14328 c 0,-0.60149 0.9,-1.328975 2,-1.616631 2.886372,-0.754803 2.459418,-2.290066 -1,-3.595851 -2.056722,-0.776326 -2.963526,-1.770898 -2.883999,-3.163136 0.08178,-1.431568 0.241538,-1.563224 0.541464,-0.446202 0.525766,1.958128 7.342535,5.423447 7.342535,3.732595 0,-0.632769 0.285571,-0.864917 0.634602,-0.515886 0.349031,0.349031 0.06944,1.999031 -0.62132,3.666666 -0.900626,2.174303 -1.928844,3.032065 -3.634602,3.032065 -1.308274,0 -2.37868,-0.492129 -2.37868,-1.09362 z m 9.97307,-5.15638 c -1.06103,-2.3375 -1.929146,-5.15 -1.929146,-6.25 0,-1.222454 0.75,-0.347714 1.929146,2.25 1.06103,2.3375 2.394668,4.25 2.96364,4.25 0.568972,0 1.540258,-2.008572 2.158414,-4.463493 0.618156,-2.45492 1.412136,-4.390764 1.764398,-4.301874 0.352263,0.08889 1.737545,-0.209704 3.078404,-0.663541 1.912237,-0.64723 2.814421,-0.360205 4.183956,1.331098 1.642066,2.027866 1.810323,2.050315 2.825812,0.377033 0.867807,-1.429938 0.950183,-1.190284 0.419618,1.220777 -1.126582,5.119557 -2.276377,7.527875 -3.889549,8.146907 -1.926792,0.739379 -5.477763,-2.3352 -5.477763,-4.742878 0,-0.982297 -0.45,-2.06411 -1,-2.404029 -0.593435,-0.366763 -1,0.795687 -1,2.859196 0,7.74045 -3.049529,8.950158 -6.02693,2.390804 z M 86.720281,47.4642 c 0.73377,-1.371063 0.512009,-2.086182 -0.925284,-2.983786 -2.389633,-1.49235 -4.969415,-0.552366 -4.969415,1.810683 0,3.10532 4.39275,3.97952 5.894699,1.173103 z m 21.257949,-2.721764 c -4.13171,-3.476602 -6.51014,-13.443416 -4.81398,-20.172928 1.53442,-6.087816 5.12841,-8.957631 9.00565,-7.191044 4.02007,1.831667 6.73654,6.977034 7.19107,13.620901 0.38937,5.691416 0.38319,5.70698 -0.46561,1.171035 -1.62083,-8.661712 -4.24202,-11.902958 -9.62589,-11.902958 -6.88156,0 -7.22523,18.370736 -0.41188,22.017129 3.82467,2.046905 5.48267,-0.817794 5.38483,-9.303969 -0.0545,-4.723262 0.15039,-6.142389 0.59343,-4.111168 0.86928,3.985431 5.11359,11.62865 6.75396,12.162625 0.71826,0.233811 1.93147,-1.185419 2.80931,-3.286371 1.24642,-2.983114 1.34032,-4.652672 0.48577,-8.637297 -0.58262,-2.716665 -1.045,-7.729742 -1.02751,-11.14017 0.0291,-5.670026 0.15748,-6.034629 1.5,-4.259649 1.0205,1.349214 1.4682,4.503964 1.4682,10.345708 0,6.144932 0.46126,9.185423 1.71561,11.30887 3.80038,6.433533 5.53904,1.311406 4.75037,-13.994641 -0.54797,-10.634545 -0.46731,-11.4393457 0.96812,-9.659938 1.14302,1.41691 1.5659,4.210865 1.5659,10.345709 0,6.155667 0.46058,9.184276 1.72127,11.318448 2.17502,3.682028 3.42994,3.260613 5.01898,-1.685436 l 1.25935,-3.91985 -0.58025,4.877849 c -0.67321,5.659396 -1.30622,7.622151 -2.45824,7.622151 -0.93356,0 -4.42081,-4.723008 -5.16848,-7 -0.2809,-0.855457 -0.80394,0.0039 -1.21724,2 -1.73543,8.381382 -2.3295,8.727386 -5.91781,3.446719 l -2.41451,-3.553282 -0.69154,4.611531 c -0.86684,5.780478 -2.99467,6.843736 -6.21157,3.103866 l -2.34488,-2.726085 -1.0601,2.788274 c -1.86834,4.914096 -3.60714,5.317157 -7.78233,1.803971 z m 17.56493,-26.211244 c -0.22985,-1.520063 -0.42406,-0.51375 -0.43157,2.23625 -0.008,2.75 0.18056,3.993687 0.41792,2.76375 0.23736,-1.229938 0.24351,-3.479938 0.0136,-5 z m 9,-2 c -0.22985,-1.520063 -0.42406,-0.51375 -0.43157,2.23625 -0.007,2.75 0.18056,3.993687 0.41792,2.76375 0.23736,-1.229938 0.24351,-3.479938 0.0136,-5 z M 67.825582,32.385476 c 0,-1.1 0.45,-2.278115 1,-2.618034 0.55,-0.339919 1,0.281966 1,1.381966 0,1.1 -0.45,2.278115 -1,2.618034 -0.55,0.339919 -1,-0.281966 -1,-1.381966 z"
     id="path4532" />
  <path
     style="fill:#ff0000"
     d="M 23.082202,58.017442 C 21.573554,48.858885 20.234065,44.20108 18.395756,41.721249 17.16246,40.057567 16.643377,39.953057 14.900055,41.017442 c -3.858475,2.355791 -4.256293,0.735475 -0.804641,-3.27731 2.261571,-2.629233 2.276433,-2.631543 4.083443,-0.63482 0.997486,1.10221 2.410823,4.177093 3.14075,6.833074 l 1.32714,4.829056 0.08942,-4.55887 c 0.18617,-9.49175 5.273947,-10.330787 6.72697,-1.109361 l 0.735572,4.668231 0.791727,-4.428291 c 1.486688,-8.315341 4.80743,-7.719423 6.841991,1.227819 2.465398,10.8419 3.107392,12.700472 4.387039,12.700472 0.724237,0 1.797317,-1.4625 2.384621,-3.25 1.006516,-3.0634 1.036188,-2.99163 0.516801,1.25 -1.139379,9.304851 -4.476868,7.354344 -6.927199,-4.048418 -0.927665,-4.31694 -2.064988,-8.434567 -2.527385,-9.150282 -2.438865,-3.774963 -3.858393,9.110915 -1.922176,17.4487 0.48035,2.068497 0.486936,3.75 0.01469,3.75 -0.942375,0 -2.12412,-3.944409 -4.298826,-14.348549 -1.544866,-7.390869 -3.530567,-10.863498 -3.774812,-6.601451 -0.07722,1.3475 -0.0281,7.0625 0.109153,12.7 0.137255,5.6375 -0.148116,10.25 -0.634158,10.25 -0.486041,0 -1.421129,-3.2625 -2.077973,-7.25 z m 0.426494,-7.9375 c -0.319226,-0.797733 -0.556183,-0.560776 -0.604167,0.604167 -0.04342,1.054166 0.192928,1.644791 0.52522,1.3125 0.332291,-0.332292 0.367818,-1.194792 0.07895,-1.916667 z m 24.842566,6.23716 c -1.9682,-3.80608 -1.924764,-6.432888 0.0463,-2.79966 2.417667,4.456455 4.428025,2.943797 4.428025,-3.331787 0,-4.051687 1.638237,-3.66011 2.434022,0.581787 0.73711,3.929135 3.495572,4.865609 3.681979,1.25 0.09346,-1.812795 0.207825,-1.894583 0.588557,-0.420905 0.708292,2.741552 -0.552391,6.670905 -2.140277,6.670905 -0.768688,0 -1.817594,-1.2375 -2.330902,-2.75 l -0.933288,-2.75 -0.729501,3.25 c -0.908247,4.046335 -3.041892,4.17307 -5.04491,0.29966 z m 13.47432,-1.14328 c 0,-0.60149 0.9,-1.328975 2,-1.616631 2.886372,-0.754803 2.459418,-2.290066 -1,-3.595851 -2.056722,-0.776326 -2.963526,-1.770898 -2.883999,-3.163136 0.08178,-1.431568 0.241538,-1.563224 0.541464,-0.446202 0.525766,1.958128 7.342535,5.423447 7.342535,3.732595 0,-0.632769 0.285571,-0.864917 0.634602,-0.515886 0.349031,0.349031 0.06944,1.999031 -0.62132,3.666666 -0.900626,2.174303 -1.928844,3.032065 -3.634602,3.032065 -1.308274,0 -2.37868,-0.492129 -2.37868,-1.09362 z m 9.97307,-5.15638 c -1.06103,-2.3375 -1.929146,-5.15 -1.929146,-6.25 0,-1.222454 0.75,-0.347714 1.929146,2.25 1.06103,2.3375 2.394668,4.25 2.96364,4.25 0.568972,0 1.540258,-2.008572 2.158414,-4.463493 0.618156,-2.45492 1.412136,-4.390764 1.764398,-4.301874 0.352263,0.08889 1.737545,-0.209704 3.078404,-0.663541 1.912237,-0.64723 2.814421,-0.360205 4.183956,1.331098 1.642066,2.027866 1.810323,2.050315 2.825812,0.377033 0.867807,-1.429938 0.950183,-1.190284 0.419618,1.220777 -1.126582,5.119557 -2.276377,7.527875 -3.889549,8.146907 -1.926792,0.739379 -5.477763,-2.3352 -5.477763,-4.742878 0,-0.982297 -0.45,-2.06411 -1,-2.404029 -0.593435,-0.366763 -1,0.795687 -1,2.859196 0,7.74045 -3.049529,8.950158 -6.02693,2.390804 z M 86.720281,47.4642 c 0.73377,-1.371063 0.512009,-2.086182 -0.925284,-2.983786 -2.389633,-1.49235 -4.969415,-0.552366 -4.969415,1.810683 0,3.10532 4.39275,3.97952 5.894699,1.173103 z m 21.257949,-2.721764 c -4.13171,-3.476602 -6.51014,-13.443416 -4.81398,-20.172928 1.53442,-6.087816 5.12841,-8.957631 9.00565,-7.191044 4.02007,1.831667 6.73654,6.977034 7.19107,13.620901 0.38937,5.691416 0.38319,5.70698 -0.46561,1.171035 -1.62083,-8.661712 -4.24202,-11.902958 -9.62589,-11.902958 -6.88156,0 -7.22523,18.370736 -0.41188,22.017129 3.82467,2.046905 5.48267,-0.817794 5.38483,-9.303969 -0.0545,-4.723262 0.15039,-6.142389 0.59343,-4.111168 0.86928,3.985431 5.11359,11.62865 6.75396,12.162625 0.71826,0.233811 1.93147,-1.185419 2.80931,-3.286371 1.24642,-2.983114 1.34032,-4.652672 0.48577,-8.637297 -0.58262,-2.716665 -1.045,-7.729742 -1.02751,-11.14017 0.0291,-5.670026 0.15748,-6.034629 1.5,-4.259649 1.0205,1.349214 1.4682,4.503964 1.4682,10.345708 0,8.442072 2.01265,14.708944 4.46171,13.892591 1.7658,-0.5886 3.27438,-7.923564 2.40132,-11.675592 -0.44843,-1.92711 -0.81174,-6.428837 -0.80737,-10.003837 0.007,-5.93076 0.13652,-6.3300052 1.47614,-4.558871 1.0205,1.349215 1.4682,4.503965 1.4682,10.345709 0,6.155667 0.46058,9.184276 1.72127,11.318448 2.17502,3.682028 3.42994,3.260613 5.01898,-1.685436 l 1.25935,-3.91985 -0.58025,4.877849 c -0.67321,5.659396 -1.30622,7.622151 -2.45824,7.622151 -0.93356,0 -4.42081,-4.723008 -5.16848,-7 -0.2809,-0.855457 -0.80394,0.0039 -1.21724,2 -1.73543,8.381382 -2.3295,8.727386 -5.91781,3.446719 l -2.41451,-3.553282 -0.69154,4.611531 c -0.86684,5.780478 -2.99467,6.843736 -6.21157,3.103866 l -2.34488,-2.726085 -1.0601,2.788274 c -1.86834,4.914096 -3.60714,5.317157 -7.78233,1.803971 z m 17.56493,-26.211244 c -0.22985,-1.520063 -0.42406,-0.51375 -0.43157,2.23625 -0.008,2.75 0.18056,3.993687 0.41792,2.76375 0.23736,-1.229938 0.24351,-3.479938 0.0136,-5 z m 9,-2 c -0.22985,-1.520063 -0.42406,-0.51375 -0.43157,2.23625 -0.007,2.75 0.18056,3.993687 0.41792,2.76375 0.23736,-1.229938 0.24351,-3.479938 0.0136,-5 z M 67.825582,32.385476 c 0,-1.1 0.45,-2.278115 1,-2.618034 0.55,-0.339919 1,0.281966 1,1.381966 0,1.1 -0.45,2.278115 -1,2.618034 -0.55,0.339919 -1,-0.281966 -1,-1.381966 z"
     id="path4530" />
  <path
     style="fill:#ff0000"
     d="m 23.825582,62.214847 c 0,-4.933888 -2.899536,-16.253072 -5.08323,-19.843869 -1.953326,-3.211988 -2.083357,-3.262752 -3.974215,-1.551549 -2.909482,2.633045 -3.484241,1.017482 -0.919449,-2.584436 2.173727,-3.052718 2.296027,-3.092134 4.057144,-1.307576 0.99872,1.012014 2.71587,4.990025 3.815888,8.840025 l 2.000034,7 -0.538536,-5.5 c -0.541551,-5.530801 0.742432,-11 2.582429,-11 1.435294,0 2.797681,2.95686 3.464144,7.51841 0.458219,3.136244 0.393717,3.414361 -0.303805,1.309933 -2.789317,-8.415383 -4.098347,-4.741812 -3.357287,9.421657 0.406809,7.775133 0.243447,10.75 -0.590328,10.75 -0.634034,0 -1.152789,-1.373668 -1.152789,-3.052595 z m 8.604065,-0.697405 c -2.00184,-6.601008 -2.46497,-11.460399 -1.599216,-16.779795 0.521221,-3.2025 1.41157,-6.286624 1.978555,-6.853609 1.476751,-1.476751 3.881137,1.220448 4.365191,4.896797 0.21628,1.642634 0.182646,2.311607 -0.07474,1.486607 -0.845777,-2.710934 -2.293182,-3.584435 -3.30018,-1.991641 -1.218152,1.926783 -1.246633,13.553085 -0.04348,17.748243 0.511607,1.783869 0.541932,3.243398 0.06739,3.243398 -0.474544,0 -1.101626,-0.7875 -1.393517,-1.75 z m 8.524318,-1.595308 c -0.614078,-0.739919 -1.348595,-2.877419 -1.632259,-4.75 -0.503761,-3.325536 -0.490337,-3.340757 0.577395,-0.654692 1.138652,2.864475 3.39356,3.657674 4.2642,1.5 0.314282,-0.778873 0.534142,-0.621248 0.583334,0.418213 0.103876,2.194983 -0.936047,4.831787 -1.905597,4.831787 -0.423812,0 -1.272994,-0.605388 -1.887073,-1.345308 z m 7.32059,-4.122573 c -1.870039,-4.475635 -1.797468,-5.822097 0.123002,-2.282119 2.417667,4.456455 4.428025,2.943797 4.428025,-3.331787 0,-1.605017 0.45,-2.918213 1,-2.918213 0.55,0 1,0.863196 1,1.918213 0,2.980497 1.077975,5.081787 2.606989,5.081787 0.766156,0 1.393011,-0.75 1.393011,-1.666667 0,-0.916666 0.267822,-1.398844 0.595161,-1.071506 1.028639,1.02864 -0.719548,6.86316 -1.93625,6.462174 C 56.847092,57.781377 55.818207,56.60069 55.198081,55.367694 54.082875,53.15033 54.058906,53.15937 53.0001,56.196663 51.600539,60.211449 50.06401,60.08233 48.274555,55.799561 Z m 13.551027,-0.532119 c 0,-0.55 0.3375,-1.006891 0.75,-1.015313 0.4125,-0.0084 1.396064,-0.424125 2.185698,-0.923784 1.247597,-0.789447 1.247597,-1.136433 0,-2.648407 -1.314637,-1.59322 -1.25706,-1.644775 0.682819,-0.6114 1.165184,0.620695 2.402684,0.844369 2.75,0.497054 1.275571,-1.275572 0.58421,1.324329 -0.925221,3.479344 -1.560392,2.227772 -5.443296,3.099831 -5.443296,1.222506 z m 10.851499,-3.75 c -0.868844,-1.5125 -1.865288,-4.1 -2.214319,-5.75 -0.593693,-2.806606 -0.502087,-2.754108 1.421019,0.814363 2.246255,4.1681 4.011103,4.381189 5.064538,0.611498 0.616406,-2.205794 0.686946,-2.13845 0.777583,0.742352 0.206265,6.555886 -2.313501,8.343485 -5.048821,3.581787 z m 9.371007,-0.806704 c -1.239972,-0.868511 -2.222506,-2.610755 -2.222506,-3.940983 0,-1.311353 -0.45,-2.662394 -1,-3.002313 -0.55,-0.339919 -0.964474,-1.153976 -0.921053,-1.809017 0.05297,-0.799041 0.251642,-0.759502 0.603711,0.120148 0.405337,1.012743 0.969643,0.90852 2.479588,-0.457962 2.252326,-2.038326 5.083237,-0.935276 5.703093,2.222182 0.314613,1.60259 0.142821,1.676311 -1.237265,0.530941 -2.248758,-1.866303 -4.840039,-0.620102 -4.448211,2.139237 0.206848,1.456665 1.122744,2.368389 2.588173,2.576385 1.742811,0.247367 2.623482,-0.447364 3.802927,-3 l 1.53489,-3.321914 -0.558865,3.404692 c -0.543371,3.310302 -2.118306,6.095308 -3.446926,6.095308 -0.360277,0 -1.655177,-0.700517 -2.877556,-1.556704 z M 37.983477,49.267442 c 0,-1.375 0.226973,-1.9375 0.504386,-1.25 0.277412,0.6875 0.277412,1.8125 0,2.5 -0.277413,0.6875 -0.504386,0.125 -0.504386,-1.25 z m 21.921052,-2.583333 c 0.04798,-1.164943 0.284941,-1.4019 0.604167,-0.604167 0.288871,0.721875 0.253344,1.584375 -0.07895,1.916667 -0.332292,0.332291 -0.568641,-0.258334 -0.52522,-1.3125 z m 47.480961,-2.350471 c -2.14989,-2.375603 -4.48033,-8.696699 -4.44852,-12.066196 0.014,-1.488212 0.56221,-0.493229 1.35445,2.458476 1.30391,4.858107 4.75673,8.963043 6.93554,8.245428 1.74265,-0.573961 3.56052,-4.890616 3.66545,-8.703904 l 0.0963,-3.5 1.51017,3.5 c 1.62799,3.773078 4.14026,7 5.44973,7 0.44719,0 1.48443,-1.2375 2.30498,-2.75 1.78466,-3.289643 2.08392,-1.017014 0.47414,3.600777 -1.32287,3.794813 -3.28142,4.026247 -5.49413,0.649223 -2.1438,-3.271851 -3.02718,-3.15432 -3.75804,0.5 -0.49942,2.4971 -1.08111,3 -3.47001,3 -1.57851,0 -3.65755,-0.870212 -4.62008,-1.933804 z m 21.07724,-5.84894 c -2.6089,-4.132755 -4.66912,-12.973082 -2.74643,-11.784794 0.6101,0.377064 1.10928,1.806361 1.10928,3.176215 0,2.890663 2.61584,8.391323 3.9905,8.391323 1.73112,0 3.24027,-4.255802 3.24027,-9.137562 0,-2.660817 0.39808,-4.591824 0.88461,-4.291126 0.48654,0.300697 0.88462,1.667511 0.88462,3.037365 0,2.866788 2.6115,8.391323 3.96666,8.391323 1.21017,0 2.17414,-1.648247 3.16562,-5.41271 0.59201,-2.247774 0.66271,-1.760873 0.25998,1.790559 -1.00953,8.902384 -2.39134,9.627694 -6.03499,3.167764 l -2.14273,-3.798903 -0.68193,3.376645 c -1.67377,8.287877 -2.38202,8.659561 -5.89546,3.093901 z m -9.40515,-6.217256 c 0,-1.925 0.2058,-2.7125 0.45733,-1.75 0.25152,0.9625 0.25152,2.5375 0,3.5 -0.25153,0.9625 -0.45733,0.175 -0.45733,-1.75 z m -51.216685,0.309017 c -0.0084,-1.205041 0.434687,-2.469098 0.984687,-2.809017 1.273187,-0.786873 1.273187,1.529884 0,3.5 -0.788086,1.219476 -0.972238,1.090251 -0.984687,-0.690983 z m 46.063635,-3.89235 c 0.048,-1.164943 0.28494,-1.4019 0.60416,-0.604167 0.28887,0.721875 0.25335,1.584375 -0.0789,1.916667 -0.3323,0.332291 -0.56864,-0.258334 -0.52522,-1.3125 z m -10.97285,-1.916667 c -0.15242,-4.636335 3.27371,-9.5 6.69211,-9.5 3.44092,0 7.78097,4.231896 8.71724,8.5 l 0.65809,3 -1.6437,-3 c -2.42551,-4.426914 -4.04309,-5.75 -7.02984,-5.75 -3.36783,0 -5.48288,2.07864 -6.50132,6.389392 l -0.79396,3.360608 -0.0986,-3 z m 21.04092,-7.95 c -0.0809,-3.822501 0.23026,-6.5225 0.69137,-6.000001 0.46111,0.5225 0.52727,3.65 0.14702,6.950001 l -0.69137,6 z m 9,-2.000001 c -0.0809,-3.8225 0.23026,-6.522499 0.69137,-5.999999 0.46111,0.5225 0.52727,3.65 0.14702,6.95 l -0.69137,6 z m -6.91502,2.450001 c 0,-1.925 0.2058,-2.7125 0.45733,-1.75 0.25152,0.9625 0.25152,2.5375 0,3.5 -0.25153,0.9625 -0.45733,0.175 -0.45733,-1.75 z m 9,-2 c 0,-1.925 0.2058,-2.7125 0.45733,-1.75 0.25152,0.9625 0.25152,2.5375 0,3.5 -0.25153,0.9625 -0.45733,0.175 -0.45733,-1.75 z"
     id="path4528" />
  <path
     style="fill:#ff0000"
     d="m 24.19228,61.517442 c -1.292091,-6.693127 -0.986734,-23.031721 0.457074,-24.456452 1.073955,-1.059764 1.569798,-0.942727 2.743549,0.647582 1.927094,2.61101 1.962714,5.243649 0.04946,3.655791 -2.289787,-1.900354 -2.811817,1.441623 -2.054563,13.153079 0.69816,10.797537 0.153372,13.987371 -1.195522,7 z m 7.28165,-5 c -2.321069,-10.362196 0.374443,-22.611334 3.918973,-17.80887 1.867285,2.529974 1.809193,3.368259 -0.2216,3.197759 -3.213023,-0.269757 -3.957835,10.248434 -1.317886,18.611111 0.490532,1.55388 0.490662,2.75 2.99e-4,2.75 -0.477304,0 -1.548208,-3.0375 -2.379786,-6.75 z m 9.589569,3.5 c -0.553834,-0.6875 -1.278638,-2.825 -1.610676,-4.75 -0.570448,-3.307202 -0.544676,-3.348516 0.467861,-0.75 1.115567,2.862924 3.370912,3.660314 4.242617,1.5 0.314282,-0.778873 0.534142,-0.621248 0.583334,0.418213 0.103876,2.194983 -0.936047,4.831787 -1.905597,4.831787 -0.423812,0 -1.223704,-0.5625 -1.777539,-1.25 z m 7.829787,-2.623493 c -1.511709,-2.824656 -1.324444,-3.584472 0.508511,-2.063254 2.053921,1.704603 3.386854,-0.200772 3.408472,-4.87227 0.01831,-3.957332 1.511752,-3.458787 2.361151,0.788208 0.65771,3.288551 3.2227,4.110681 3.964836,1.270809 0.374772,-1.434108 0.478263,-1.378354 0.573325,0.30887 0.0638,1.132379 -0.528778,2.932379 -1.31684,4 -1.36916,1.854858 -1.498481,1.786109 -2.909742,-1.546848 l -1.4769,-3.487979 -0.886201,3.419959 c -1.0531,4.064046 -2.750546,4.940559 -4.226612,2.182505 z m 13.476792,-2.054511 c -0.315446,-0.510402 0.332997,-1.215726 1.440983,-1.567387 2.331425,-0.739966 2.508246,-1.550937 0.764521,-3.506381 -1.059036,-1.187621 -0.989342,-1.205023 0.456195,-0.11391 0.938407,0.708324 2.170753,1.000749 2.738546,0.649834 1.172998,-0.724952 0.317395,2.225826 -1.22242,4.215848 -1.137597,1.470204 -3.362226,1.641662 -4.177825,0.321996 z m 11.252096,-2.821996 c -1.371936,-1.586437 -3.866436,-7.674839 -3.74856,-9.149223 0.02642,-0.330427 0.818144,0.974223 1.759393,2.899223 2.004675,4.09987 4.314278,4.535824 5.29781,1 l 0.695405,-2.5 0.08602,2.5 c 0.109338,3.177491 -0.899973,7 -1.848309,7 -0.400609,0 -1.409403,-0.7875 -2.241764,-1.75 z M 21.904529,50.684109 c 0.04798,-1.164943 0.284941,-1.4019 0.604167,-0.604167 0.288871,0.721875 0.253344,1.584375 -0.07895,1.916667 -0.332292,0.332291 -0.568641,-0.258334 -0.52522,-1.3125 z m 59.921053,-0.416667 c -1.1,-1.1 -2,-2.81 -2,-3.8 0,-0.99 -0.5625,-2.372143 -1.25,-3.071429 -0.6875,-0.699285 -0.8,-1.143682 -0.25,-0.987548 0.55,0.156135 2.041265,-0.29295 3.313922,-0.997965 1.797102,-0.995542 2.634674,-1.015646 3.75,-0.09001 2.213409,1.836966 1.712482,2.842406 -1.312907,2.635213 -2.161125,-0.148005 -2.817661,0.293845 -3.070136,2.066207 -0.392059,2.75223 2.296888,4.052762 4.951587,2.394876 2.119947,-1.323929 2.320006,-0.863315 0.83235,1.916394 -1.313653,2.454587 -2.459666,2.439412 -4.964816,-0.06574 z m -43.842105,-1 c 0,-1.375 0.226973,-1.9375 0.504386,-1.25 0.277412,0.6875 0.277412,1.8125 0,2.5 -0.277413,0.6875 -0.504386,0.125 -0.504386,-1.25 z m -17.63512,-3.896308 c -0.349875,-1.592969 -1.446108,-3.629322 -2.436073,-4.525228 -1.602551,-1.450288 -1.93775,-1.462867 -3.056626,-0.114703 -1.991752,2.399913 -3.179677,0.694192 -1.403951,-2.015908 2.095668,-3.198393 3.990056,-3.098461 5.727757,0.302147 1.545652,3.024778 3.09693,9.25 2.305029,9.25 -0.275,0 -0.786262,-1.303338 -1.136136,-2.896308 z m 39.556172,1.312975 c 0.04798,-1.164943 0.284941,-1.4019 0.604167,-0.604167 0.288871,0.721875 0.253344,1.584375 -0.07895,1.916667 -0.332292,0.332291 -0.568641,-0.258334 -0.52522,-1.3125 z m -31,-1 c 0.04798,-1.164943 0.284941,-1.4019 0.604167,-0.604167 0.288871,0.721875 0.253344,1.584375 -0.07895,1.916667 -0.332292,0.332291 -0.568641,-0.258334 -0.52522,-1.3125 z m 8,-1 c 0.04798,-1.164943 0.284941,-1.4019 0.604167,-0.604167 0.288871,0.721875 0.253344,1.584375 -0.07895,1.916667 -0.332292,0.332291 -0.568641,-0.258334 -0.52522,-1.3125 z m 69.993631,-1.051526 c -1.13992,-1.449172 -2.07258,-2.987368 -2.07258,-3.418212 0,-0.430845 -0.27288,-1.607658 -0.6064,-2.615142 -0.33351,-1.007483 0.34406,-0.354176 1.50573,1.451794 1.16166,1.80597 2.85463,3.568511 3.76215,3.916759 2.54505,0.976628 5.33479,-3.218591 5.36048,-8.061124 l 0.022,-4.139216 1.81956,4 c 2.42695,5.335233 4.63257,7.163135 6.63652,5.5 0.825,-0.684689 1.5,-1.939789 1.5,-2.789111 0,-0.849322 0.25458,-1.289646 0.56572,-0.978497 0.9648,0.964798 -1.5726,8.767086 -2.85426,8.776623 -0.6663,0.005 -2.43685,-1.457542 -3.93456,-3.25 l -2.72314,-3.259015 -0.0269,2.55 c -0.0563,5.333444 -5.47756,6.735122 -8.95432,2.315141 z m 21.56457,-5.147885 c -1.31337,-2.08051 -2.66961,-5.79301 -3.01388,-8.25 -0.64797,-4.624554 0.67961,-3.092953 1.76196,2.032744 0.29035,1.375 1.22245,3.4 2.07134,4.5 1.52553,1.976806 1.56083,1.977489 3.04343,0.05887 1.63454,-2.115231 1.96592,-0.899338 0.86971,3.19113 -0.85204,3.179396 -1.99072,2.810608 -4.73256,-1.532744 z m 9.35189,-1.467256 c -1.08986,-1.7875 -1.99014,-3.7 -2.00061,-4.25 -0.0105,-0.55 -0.34966,-0.482033 -0.75374,0.151037 -0.40408,0.633071 -0.79467,-1.166929 -0.86798,-4 -0.13199,-5.100659 0.78617,-4.487062 2.01852,1.348963 0.29035,1.375 1.22245,3.4 2.07134,4.5 1.52553,1.976806 1.56083,1.977489 3.04343,0.05887 1.63454,-2.115231 1.96592,-0.899338 0.86971,3.19113 -0.83044,3.098778 -2.05156,2.820026 -4.38067,-1 z M 67.840895,32.576459 c -0.0084,-1.205041 0.434687,-2.469098 0.984687,-2.809017 1.273187,-0.786873 1.273187,1.529884 0,3.5 -0.788086,1.219476 -0.972238,1.090251 -0.984687,-0.690983 z m 35.063635,0.10765 c 0.048,-1.164943 0.28494,-1.4019 0.60416,-0.604167 0.28887,0.721875 0.25335,1.584375 -0.0789,1.916667 -0.3323,0.332291 -0.56864,-0.258334 -0.52522,-1.3125 z m 16.07894,-1.416667 c 0,-1.375 0.22698,-1.9375 0.50439,-1.25 0.27741,0.6875 0.27741,1.8125 0,2.5 -0.27741,0.6875 -0.50439,0.125 -0.50439,-1.25 z m -1.82609,-5.93192 c -0.59283,-1.570575 -2.27843,-3.642233 -3.7458,-4.603686 -3.46839,-2.272575 -7.07149,-0.787129 -9.18405,3.786294 l -1.50093,3.249312 0.61721,-3 c 1.62883,-7.917045 7.17485,-10.03033 11.82378,-4.505396 2.46388,2.928161 4.22434,6.772378 3.45413,7.542591 -0.21256,0.212561 -0.87152,-0.898541 -1.46434,-2.469115 z m 6.809,-7.01808 c -0.0789,-3.614386 0.2334,-6.032352 0.71038,-5.500001 0.46815,0.5225 0.5315,3.425 0.1408,6.450001 l -0.71038,5.5 z m 9,-2.000001 c -0.0789,-3.614385 0.2334,-6.032351 0.71038,-5.499999 0.46815,0.5225 0.5315,3.425 0.1408,6.45 l -0.71038,5.5 z m -6.98291,1.950001 c 0,-1.375001 0.22698,-1.937501 0.50439,-1.25 0.27741,0.6875 0.27741,1.8125 0,2.5 -0.27741,0.6875 -0.50439,0.125 -0.50439,-1.25 z m 9,-2.000001 c 0,-1.374999 0.22698,-1.937499 0.50439,-1.249999 0.27741,0.6875 0.27741,1.812499 0,2.5 -0.27741,0.6875 -0.50439,0.125 -0.50439,-1.250001 z"
     id="path4526" />
  <path
     style="fill:#ff0000;fill-opacity:1;stroke:#f80300;stroke-width:3.90981054;stroke-miterlimit:4;stroke-dasharray:93.83545404, 3.90981059;stroke-dashoffset:0;stroke-opacity:1"
     d="m 9250.8712,123.0854 c -4.7174,-28.024362 -3.6024,-96.434634 1.6689,-102.400033 3.9211,-4.43727 5.7311,-3.947232 10.0166,2.711448 7.0358,10.932392 7.1658,21.955345 0.1789,15.306927 -8.3599,-7.95685 -10.2657,6.036126 -7.5007,55.072408 2.5486,45.20967 0.5595,58.56562 -4.3652,29.30925 z m 26.5851,-20.93518 c -8.4743,-43.386881 1.3669,-94.6744563 14.3079,-74.566369 6.8172,10.593091 6.6051,14.10302 -0.809,13.38913 -11.7308,-1.129482 -14.4501,42.910557 -4.8115,77.925379 1.7908,6.50615 1.7911,11.51435 0,11.51435 -1.7427,0 -5.6525,-12.71812 -8.6885,-28.26249 z m 35.011,14.65462 c -2.0223,-2.87858 -4.6684,-11.82837 -5.8806,-19.888413 -2.0828,-13.847373 -1.9886,-14.020355 1.7079,-3.140277 4.0731,11.98716 12.3071,15.32586 15.4899,6.28055 1.1472,-3.261166 1.95,-2.601185 2.1296,1.75108 0.3793,9.19047 -3.4176,20.23086 -6.9572,20.23086 -1.5473,0 -4.4676,-2.35521 -6.4896,-5.2338 z m 28.5858,-10.98465 c -5.5192,-11.826938 -4.8354,-15.008315 1.8569,-8.638921 7.4985,7.137231 12.3649,-0.84064 12.4439,-20.400368 0.065,-16.569488 5.5195,-14.482063 8.6205,3.300255 2.4013,13.769281 11.7659,17.211568 14.4753,5.320922 1.3684,-6.00466 1.7462,-5.771216 2.093,1.29325 0.2337,4.741311 -1.9303,12.277975 -4.8074,16.748142 -4.9989,7.76636 -5.4711,7.4785 -10.6233,-6.476707 l -5.392,-14.604292 -3.2354,14.31949 c -3.8449,17.016309 -10.0424,20.686299 -15.4315,9.138229 z m 49.203,-8.602313 c -1.1515,-2.137072 1.2158,-5.090289 5.261,-6.562706 8.5118,-3.098263 9.1576,-6.493828 2.7912,-14.681341 -3.8665,-4.972612 -3.612,-5.045475 1.6654,-0.476945 3.4261,2.965778 7.9256,4.190171 9.9986,2.720877 4.2825,-3.035399 1.1588,9.319613 -4.4629,17.651905 -4.1533,6.155793 -12.2756,6.873693 -15.2533,1.34821 z m 41.0808,-11.815799 c -5.0087,-6.642467 -14.116,-32.134823 -13.6856,-38.30812 0.095,-1.38351 2.9868,4.079107 6.4234,12.13915 7.3188,17.166301 15.751,18.991656 19.3419,4.187034 l 2.539,-10.467587 0.3139,10.467587 c 0.3991,13.304268 -3.2858,29.309249 -6.7481,29.309249 -1.4625,0 -5.1455,-3.297291 -8.1845,-7.327313 z m -188.8179,-7.67623 c 0.1752,-4.877656 1.0401,-5.869805 2.2054,-2.529669 1.0548,3.022518 0.9251,6.633836 -0.2883,8.025154 -1.2133,1.391314 -2.076,-1.081654 -1.9176,-5.495485 z m 218.7679,-1.744599 c -4.0159,-4.605738 -7.3018,-11.76557 -7.3018,-15.910735 0,-4.145165 -2.0536,-9.932247 -4.5638,-12.860181 -2.51,-2.927932 -2.9207,-4.788638 -0.9127,-4.134899 2.0081,0.653743 7.4527,-1.226592 12.0993,-4.178515 6.5611,-4.168369 9.6187,-4.252546 13.691,-0.376875 8.081,7.691441 6.2519,11.901255 -4.7933,11.033731 -7.8905,-0.619703 -10.2873,1.230339 -11.2091,8.651281 -1.4313,11.523685 8.3858,16.969059 18.0779,10.027431 7.7397,-5.543338 8.4702,-3.614731 3.0391,8.024009 -4.7962,10.277444 -8.9802,10.213905 -18.1266,-0.275255 z m -160.0648,-4.187036 c 0,-5.757173 0.8287,-8.112381 1.8415,-5.233793 1.0128,2.878587 1.0128,7.589001 0,10.467588 -1.0128,2.878587 -1.8415,0.523379 -1.8415,-5.233795 z m -64.3848,-16.313979 c -1.2775,-6.669818 -5.2796,-15.1961 -8.8941,-18.94729 -5.8506,-6.072407 -7.0743,-6.125076 -11.1594,-0.480265 -7.2715,10.04852 -11.6088,2.906606 -5.1255,-8.440679 7.6509,-13.391785 14.5672,-12.973366 20.9114,1.2651 5.6433,12.664853 11.3067,38.730078 8.4154,38.730078 -1.0039,0 -2.8703,-5.457122 -4.1478,-12.126944 z m 144.4175,5.497473 c 0.1752,-4.877658 1.0401,-5.869806 2.2054,-2.529669 1.0547,3.022517 0.9251,6.633834 -0.2884,8.025153 -1.2132,1.391314 -2.0759,-1.081653 -1.9175,-5.495484 z m -113.1794,-4.187035 c 0.1753,-4.877658 1.0403,-5.869805 2.2056,-2.529669 1.0548,3.022516 0.9252,6.633834 -0.2885,8.025152 -1.2131,1.391315 -2.0758,-1.081654 -1.9174,-5.495483 z m 29.2077,-4.187036 c 0.1752,-4.877658 1.0401,-5.869805 2.2054,-2.529669 1.0548,3.022516 0.9253,6.633834 -0.2883,8.025153 -1.2133,1.391314 -2.076,-1.081653 -1.9175,-5.495484 z m 255.5424,-4.402776 c -4.1617,-6.067735 -7.5669,-12.508216 -7.5669,-14.312175 0,-1.803964 -0.996,-6.731321 -2.214,-10.949693 -1.2176,-4.218367 1.2563,-1.482947 5.4977,6.078713 4.2409,7.561661 10.4219,14.941482 13.7352,16.399609 9.292,4.089177 19.4769,-13.476355 19.5708,-33.752211 l 0.081,-17.331045 6.6432,16.748142 c 8.8604,22.338809 16.913,29.9923 24.2294,23.028695 3.0121,-2.866817 5.4765,-8.121966 5.4765,-11.678107 0,-3.556141 0.9295,-5.399794 2.0653,-4.097002 3.5225,4.039644 -5.7414,36.7081 -10.4208,36.748032 -2.4327,0.02093 -8.8966,-6.10278 -14.3647,-13.607865 l -9.9423,-13.645611 -0.099,10.67694 c -0.2044,22.331319 -19.998,28.200194 -32.6916,9.693578 z M 9632.783,28.8771 c -8.3732,-15.623152 -15.6819,-43.313629 -13.3439,-50.55563 0.8741,-2.707426 2.7133,0.729909 4.0876,7.638517 3.728,18.7401577 12.4095,39.776837 16.4161,39.776837 1.9405,0 5.203,-3.297291 7.2498,-7.327312 2.9144,-5.738203 3.7349,-5.965219 3.7827,-1.04676 0.1064,10.893076 -4.2103,25.122214 -7.6207,25.122214 -1.8032,0 -6.5608,-6.12354 -10.5716,-13.607866 z m 32.9169,-8.37407 c -3.9792,-7.484326 -7.2661,-15.4920312 -7.3041,-17.7949012 -0.04,-2.30286998 -1.2768,-2.01828895 -2.7521,0.6323979 -1.4753,2.6506896 -2.901,-4.8859734 -3.169,-16.7481427 -0.4815,-21.35664 2.8703,-18.787488 7.3697,5.648156 1.06,5.7571742 4.463,14.235921 7.5623,18.84166 5.5695,8.276957 5.6983,8.279816 11.1112,0.24649 5.9679,-8.8565467 7.1778,-3.7655595 3.1752,13.361375 -3.0317,12.974693 -7.4898,11.807549 -15.9932,-4.187035 z M 9410.2296,1.9084767 c -0.037,-5.0455494 1.5871,-10.3382011 3.5951,-11.7614548 4.6484,-3.2946649 4.6484,6.4056794 0,14.6546249 -2.8773,5.1059896 -3.5495,4.5649198 -3.5951,-2.8931701 z m 128.0155,0.4507344 c 0.1752,-4.8776578 1.0401,-5.8698051 2.2056,-2.52966876 1.0547,3.02251586 0.9251,6.63383416 -0.2885,8.02515176 -1.2131,1.391315 -2.0758,-1.0816535 -1.9174,-5.495483 z m 58.7031,-5.9316351 c 0,-5.7571742 0.8288,-8.112381 1.8416,-5.2337944 1.0127,2.8785865 1.0127,7.589001 0,10.4675888 -1.0128,2.8785865 -1.8416,0.5233785 -1.8416,-5.2337944 z m -6.667,-24.83716 c -2.1641,-6.576053 -8.3182,-15.250158 -13.6756,-19.275797 -12.663,-9.515351 -25.8176,-3.295735 -33.5302,15.853348 l -5.4798,13.604984 2.2535,-12.561105 c 5.9465,-33.148949 26.1946,-41.997347 43.1676,-18.864254 8.9955,12.260315 15.423,28.356187 12.611,31.581097 -0.7763,0.889999 -3.1817,-3.762224 -5.3465,-10.338273 z m 24.8593,-29.384949 c -0.2883,-15.133562 0.8522,-25.257672 2.5936,-23.0287 1.7094,2.187726 1.9406,14.340597 0.5141,27.006383 l -2.5936,23.028696 z m 32.8585,-8.374076 c -0.2884,-15.133557 0.8522,-25.257667 2.5936,-23.02869 1.7094,2.187725 1.9406,14.340597 0.5141,27.006378 l -2.5936,23.028696 z m -25.4942,8.164724 c 0,-5.757178 0.8288,-8.112386 1.8415,-5.233794 1.0128,2.878586 1.0128,7.589001 0,10.467589 -1.0127,2.878586 -1.8415,0.523378 -1.8415,-5.233795 z m 32.8585,-8.374075 c 0,-5.75717 0.8288,-8.112378 1.8415,-5.23379 1.0128,2.878586 1.0128,7.588997 0,10.467589 -1.0127,2.878586 -1.8415,0.523378 -1.8415,-5.233799 z"
     id="path4524"
     inkscape:connector-curvature="0" />
  <path
     style="fill:#ff0000"
     d="m 24.231887,61.017442 c -1.003597,-5.543007 -0.521584,-22.976614 0.669094,-24.2 1.173302,-1.205533 2.476161,0.125208 3.377713,3.45 0.523092,1.929086 0.434576,2.157452 -0.387605,1 -2.318661,-3.264166 -3.195432,1.123575 -2.547744,12.75 0.649249,11.654424 0.220341,14.355703 -1.111458,7 z m 7.764958,-2.399058 c -0.528102,-2.118018 -1.182956,-4.834406 -1.455231,-6.036417 -0.527656,-2.32944 1.589196,-13.953087 2.753033,-15.116924 0.381952,-0.381951 1.332665,0.178344 2.112696,1.245101 1.830966,2.503994 1.804538,3.642765 -0.06786,2.924258 -0.98278,-0.377129 -1.836676,0.35181 -2.521205,2.152259 -1.395994,3.671741 -1.414586,6.008366 -0.09861,12.392637 1.286358,6.240573 0.709979,8.185503 -0.722823,2.439086 z m 8.863921,0.714799 c -1.440953,-2.692445 -1.291336,-3.523217 0.384094,-2.132734 1.121111,0.930439 1.639931,0.7986 2.469591,-0.627556 1.177338,-2.023801 1.389399,-0.94571 0.480845,2.444549 -0.740022,2.761382 -1.963655,2.877246 -3.33453,0.315741 z m 8.65722,-1.424941 c -0.341392,-0.889652 0.209342,-1.643349 1.43502,-1.963871 1.436678,-0.3757 1.903436,-0.07895 1.680803,1.068598 -0.41194,2.123323 -2.422854,2.701122 -3.115823,0.895273 z m 6.016132,-2.482669 c -0.738044,-1.75529 -1.649392,-2.883942 -2.025217,-2.508117 -0.375825,0.375826 -0.683319,-0.768238 -0.683319,-2.542364 0,-1.895812 0.412276,-2.970883 1,-2.60765 0.55,0.339919 1,1.29606 1,2.124758 0,0.828699 0.509236,2.458241 1.131635,3.621204 1.111765,2.077352 1.157478,2.080588 2.603427,0.184259 1.396272,-1.831177 1.435062,-1.801941 0.755971,0.569779 -1.203367,4.202745 -2.354178,4.555102 -3.782497,1.158131 z m 6.791464,-0.158131 c -0.339919,-0.55 0.05697,-1 0.881966,-1 2.225337,0 2.964724,-1.854573 1.512526,-3.793805 -0.702729,-0.938407 -0.216006,-0.718231 1.081607,0.48928 1.979603,1.842147 2.151666,2.445651 1.069153,3.75 -1.468333,1.769233 -3.631423,2.033132 -4.545252,0.554525 z m 10.57023,-4.116492 c -2.401842,-3.939709 -2.804866,-6.37736 -0.513526,-3.106014 1.97588,2.820964 3.246667,2.813204 4.502202,-0.02749 0.828403,-1.874293 0.903382,-1.670785 0.449026,1.21875 -0.818922,5.208046 -2.094429,5.758395 -4.437702,1.914758 z m 8.92977,-0.883508 c -1.1,-1.1 -1.986316,-2.5625 -1.969591,-3.25 0.01688,-0.69372 0.484013,-0.471208 1.04969,0.5 1.133168,1.945531 5.919901,2.417205 5.919901,0.583333 0,-0.641666 0.261459,-0.905207 0.58102,-0.585646 0.782925,0.782924 -1.40227,4.752313 -2.616204,4.752313 -0.530649,0 -1.864816,-0.9 -2.964816,-2 z m 25.072578,-6.634859 c -2.79479,-3.553 -2.634,-5.241194 0.24187,-2.539455 4.41869,4.151138 7.6188,1.609626 7.73211,-6.140786 0.0464,-3.175411 0.0539,-3.170748 2.51917,1.5651 2.44165,4.690539 5.62725,6.336966 6.77199,3.5 0.31428,-0.778873 0.53414,-0.621248 0.58333,0.418213 0.2505,5.293257 -3.1326,6.380873 -5.71756,1.83811 -2.03943,-3.584047 -3.20349,-3.840706 -3.20349,-0.706323 0,5.094153 -5.53724,6.375058 -8.92742,2.065141 z m -27.072578,0.306994 c 0,-2.235027 3.04092,-3.720603 5.224177,-2.552159 2.413431,1.291629 2.251953,2.817296 -0.229503,2.16838 -1.10293,-0.288422 -2.67793,0.03381 -3.5,0.716064 -1.218478,1.011247 -1.494674,0.949846 -1.494674,-0.332285 z M 18.523417,41.662236 c -1.440512,-1.925828 -2.179859,-2.20719 -3.684259,-1.40206 -2.933491,1.569957 -3.25528,1.211071 -1.310261,-1.461309 2.498999,-3.433528 4.147365,-3.133046 5.906293,1.076661 1.828982,4.37737 1.503343,5.015491 -0.911773,1.786708 z M 128.3786,37.948127 c -1.50049,-2.560392 -2.49928,-5.223479 -2.21954,-5.917971 0.35569,-0.883023 0.53905,-0.811673 0.60981,0.237286 0.0556,0.825 0.9968,2.625 2.09145,4 1.94729,2.446018 2.02239,2.458085 3.47776,0.55887 1.46788,-1.915521 1.4875,-1.914745 1.4875,0.05887 0,1.1 -0.61173,2.836595 -1.35941,3.859101 -1.26532,1.730429 -1.54823,1.5369 -4.08757,-2.796156 z m 9.61184,-0.913936 c -2.70592,-4.378267 -2.78709,-6.104198 -0.13012,-2.766749 1.94729,2.446018 2.02239,2.458085 3.47776,0.55887 1.46788,-1.915521 1.4875,-1.914745 1.4875,0.05887 0,1.1 -0.60081,2.82166 -1.33514,3.825912 -1.24622,1.704306 -1.47932,1.592623 -3.5,-1.676903 z M 67.840895,32.076459 c -0.0084,-0.930041 0.434687,-1.969098 0.984687,-2.309017 1.265597,-0.782182 1.265597,0.541628 0,2.5 -0.835399,1.292687 -0.971491,1.266292 -0.984687,-0.190983 z m 56.984685,-3.868034 c 0,-0.582459 0.45,-0.780902 1,-0.440983 0.55,0.339919 1,0.816476 1,1.059017 0,0.242541 -0.45,0.440983 -1,0.440983 -0.55,0 -1,-0.476558 -1,-1.059017 z m -21.96086,-1.54176 c -0.0215,-0.605427 0.45819,-2.527426 1.06604,-4.271109 1.17203,-3.362091 3.49322,-5.128114 6.74018,-5.128114 1.97811,0 7.15464,5.217737 7.15464,7.211584 0,0.581973 -0.91174,-0.100954 -2.02609,-1.517617 -3.92998,-4.996171 -8.94117,-4.28481 -11.51615,1.63477 -0.75871,1.744195 -1.39709,2.675913 -1.41862,2.070486 z m 30.96086,-0.45824 c 0,-0.582459 0.45,-0.780902 1,-0.440983 0.55,0.339919 1,0.816476 1,1.059017 0,0.242541 -0.45,0.440983 -1,0.440983 -0.55,0 -1,-0.476558 -1,-1.059017 z m -10,-12 c 0,-1.13246 0.43035,-1.793049 0.95633,-1.467976 0.52598,0.325073 0.70283,1.251631 0.39301,2.059017 -0.79323,2.067113 -1.34934,1.823523 -1.34934,-0.591041 z m 9,-2 c 0,-1.13246 0.43035,-1.793049 0.95633,-1.467976 0.52598,0.325074 0.70283,1.251631 0.39301,2.059017 -0.79323,2.067113 -1.34934,1.823523 -1.34934,-0.591041 z"
     id="path4522" />
  <path
     style="fill:#ff0000"
     d="m 24.231887,61.017442 c -1.003597,-5.543007 -0.521584,-22.976614 0.669094,-24.2 1.173302,-1.205533 2.476161,0.125208 3.377713,3.45 0.523092,1.929086 0.434576,2.157452 -0.387605,1 -2.318661,-3.264166 -3.195432,1.123575 -2.547744,12.75 0.649249,11.654424 0.220341,14.355703 -1.111458,7 z m 7.764958,-2.399058 c -0.528102,-2.118018 -1.182956,-4.834406 -1.455231,-6.036417 -0.527656,-2.32944 1.589196,-13.953087 2.753033,-15.116924 0.381952,-0.381951 1.332665,0.178344 2.112696,1.245101 1.830966,2.503994 1.804538,3.642765 -0.06786,2.924258 -0.98278,-0.377129 -1.836676,0.35181 -2.521205,2.152259 -1.395994,3.671741 -1.414586,6.008366 -0.09861,12.392637 1.286358,6.240573 0.709979,8.185503 -0.722823,2.439086 z m 8.863921,0.714799 c -1.440953,-2.692445 -1.291336,-3.523217 0.384094,-2.132734 1.121111,0.930439 1.639931,0.7986 2.469591,-0.627556 1.177338,-2.023801 1.389399,-0.94571 0.480845,2.444549 -0.740022,2.761382 -1.963655,2.877246 -3.33453,0.315741 z m 8.65722,-1.424941 c -0.341392,-0.889652 0.209342,-1.643349 1.43502,-1.963871 1.436678,-0.3757 1.903436,-0.07895 1.680803,1.068598 -0.41194,2.123323 -2.422854,2.701122 -3.115823,0.895273 z m 6.016132,-2.482669 c -0.738044,-1.75529 -1.649392,-2.883942 -2.025217,-2.508117 -0.375825,0.375826 -0.683319,-0.768238 -0.683319,-2.542364 0,-1.895812 0.412276,-2.970883 1,-2.60765 0.55,0.339919 1,1.29606 1,2.124758 0,0.828699 0.509236,2.458241 1.131635,3.621204 1.111765,2.077352 1.157478,2.080588 2.603427,0.184259 1.396272,-1.831177 1.435062,-1.801941 0.755971,0.569779 -1.203367,4.202745 -2.354178,4.555102 -3.782497,1.158131 z m 6.791464,-0.158131 c -0.339919,-0.55 0.05697,-1 0.881966,-1 2.225337,0 2.964724,-1.854573 1.512526,-3.793805 -0.702729,-0.938407 -0.216006,-0.718231 1.081607,0.48928 1.979603,1.842147 2.151666,2.445651 1.069153,3.75 -1.468333,1.769233 -3.631423,2.033132 -4.545252,0.554525 z m 10.57023,-4.116492 c -2.401842,-3.939709 -2.804866,-6.37736 -0.513526,-3.106014 1.97588,2.820964 3.246667,2.813204 4.502202,-0.02749 0.828403,-1.874293 0.903382,-1.670785 0.449026,1.21875 -0.818922,5.208046 -2.094429,5.758395 -4.437702,1.914758 z m 8.92977,-0.883508 c -1.1,-1.1 -1.986316,-2.5625 -1.969591,-3.25 0.01688,-0.69372 0.484013,-0.471208 1.04969,0.5 1.133168,1.945531 5.919901,2.417205 5.919901,0.583333 0,-0.641666 0.261459,-0.905207 0.58102,-0.585646 0.782925,0.782924 -1.40227,4.752313 -2.616204,4.752313 -0.530649,0 -1.864816,-0.9 -2.964816,-2 z m 25.072578,-6.634859 c -2.79479,-3.553 -2.634,-5.241194 0.24187,-2.539455 4.41869,4.151138 7.6188,1.609626 7.73211,-6.140786 0.0464,-3.175411 0.0539,-3.170748 2.51917,1.5651 2.44165,4.690539 5.62725,6.336966 6.77199,3.5 0.31428,-0.778873 0.53414,-0.621248 0.58333,0.418213 0.2505,5.293257 -3.1326,6.380873 -5.71756,1.83811 -2.03943,-3.584047 -3.20349,-3.840706 -3.20349,-0.706323 0,5.094153 -5.53724,6.375058 -8.92742,2.065141 z m -27.072578,0.306994 c 0,-2.235027 3.04092,-3.720603 5.224177,-2.552159 2.413431,1.291629 2.251953,2.817296 -0.229503,2.16838 -1.10293,-0.288422 -2.67793,0.03381 -3.5,0.716064 -1.218478,1.011247 -1.494674,0.949846 -1.494674,-0.332285 z M 18.523417,41.662236 c -1.440512,-1.925828 -2.179859,-2.20719 -3.684259,-1.40206 -2.933491,1.569957 -3.25528,1.211071 -1.310261,-1.461309 2.498999,-3.433528 4.147365,-3.133046 5.906293,1.076661 1.828982,4.37737 1.503343,5.015491 -0.911773,1.786708 z M 128.99044,39.034191 c -2.70592,-4.378267 -2.78709,-6.104198 -0.13012,-2.766749 1.94729,2.446018 2.02239,2.458085 3.47776,0.55887 1.46788,-1.915521 1.4875,-1.914745 1.4875,0.05887 0,1.1 -0.60081,2.82166 -1.33514,3.825912 -1.24622,1.704306 -1.47932,1.592623 -3.5,-1.676903 z m 9,-2 c -2.70592,-4.378267 -2.78709,-6.104198 -0.13012,-2.766749 1.94729,2.446018 2.02239,2.458085 3.47776,0.55887 1.46788,-1.915521 1.4875,-1.914745 1.4875,0.05887 0,1.1 -0.60081,2.82166 -1.33514,3.825912 -1.24622,1.704306 -1.47932,1.592623 -3.5,-1.676903 z M 67.840895,32.076459 c -0.0084,-0.930041 0.434687,-1.969098 0.984687,-2.309017 1.265597,-0.782182 1.265597,0.541628 0,2.5 -0.835399,1.292687 -0.971491,1.266292 -0.984687,-0.190983 z m 56.984685,-3.868034 c 0,-0.582459 0.45,-0.780902 1,-0.440983 0.55,0.339919 1,0.816476 1,1.059017 0,0.242541 -0.45,0.440983 -1,0.440983 -0.55,0 -1,-0.476558 -1,-1.059017 z m -21.96086,-1.54176 c -0.0215,-0.605427 0.45819,-2.527426 1.06604,-4.271109 1.17203,-3.362091 3.49322,-5.128114 6.74018,-5.128114 1.97811,0 7.15464,5.217737 7.15464,7.211584 0,0.581973 -0.91174,-0.100954 -2.02609,-1.517617 -3.92998,-4.996171 -8.94117,-4.28481 -11.51615,1.63477 -0.75871,1.744195 -1.39709,2.675913 -1.41862,2.070486 z m 30.96086,-0.45824 c 0,-0.582459 0.45,-0.780902 1,-0.440983 0.55,0.339919 1,0.816476 1,1.059017 0,0.242541 -0.45,0.440983 -1,0.440983 -0.55,0 -1,-0.476558 -1,-1.059017 z m -10,-12 c 0,-1.13246 0.43035,-1.793049 0.95633,-1.467976 0.52598,0.325073 0.70283,1.251631 0.39301,2.059017 -0.79323,2.067113 -1.34934,1.823523 -1.34934,-0.591041 z m 9,-2 c 0,-1.13246 0.43035,-1.793049 0.95633,-1.467976 0.52598,0.325074 0.70283,1.251631 0.39301,2.059017 -0.79323,2.067113 -1.34934,1.823523 -1.34934,-0.591041 z"
     id="path4520" />
  <path
     style="fill:#fc331d"
     d="m 24.231887,61.017442 c -1.003597,-5.543007 -0.521584,-22.976614 0.669094,-24.2 1.173302,-1.205533 2.476161,0.125208 3.377713,3.45 0.523092,1.929086 0.434576,2.157452 -0.387605,1 -2.318661,-3.264166 -3.195432,1.123575 -2.547744,12.75 0.649249,11.654424 0.220341,14.355703 -1.111458,7 z m 7.764958,-2.399058 c -0.528102,-2.118018 -1.182956,-4.834406 -1.455231,-6.036417 -0.527656,-2.32944 1.589196,-13.953087 2.753033,-15.116924 0.381952,-0.381951 1.332665,0.178344 2.112696,1.245101 1.830966,2.503994 1.804538,3.642765 -0.06786,2.924258 -0.98278,-0.377129 -1.836676,0.35181 -2.521205,2.152259 -1.395994,3.671741 -1.414586,6.008366 -0.09861,12.392637 1.286358,6.240573 0.709979,8.185503 -0.722823,2.439086 z m 8.863921,0.714799 c -1.440953,-2.692445 -1.291336,-3.523217 0.384094,-2.132734 1.121111,0.930439 1.639931,0.7986 2.469591,-0.627556 1.177338,-2.023801 1.389399,-0.94571 0.480845,2.444549 -0.740022,2.761382 -1.963655,2.877246 -3.33453,0.315741 z m 8.65722,-1.424941 c -0.341392,-0.889652 0.209342,-1.643349 1.43502,-1.963871 1.436678,-0.3757 1.903436,-0.07895 1.680803,1.068598 -0.41194,2.123323 -2.422854,2.701122 -3.115823,0.895273 z m 6.016132,-2.482669 c -0.738044,-1.75529 -1.649392,-2.883942 -2.025217,-2.508117 -0.375825,0.375826 -0.683319,-0.768238 -0.683319,-2.542364 0,-1.895812 0.412276,-2.970883 1,-2.60765 0.55,0.339919 1,1.29606 1,2.124758 0,0.828699 0.509236,2.458241 1.131635,3.621204 1.111765,2.077352 1.157478,2.080588 2.603427,0.184259 1.396272,-1.831177 1.435062,-1.801941 0.755971,0.569779 -1.203367,4.202745 -2.354178,4.555102 -3.782497,1.158131 z m 6.791464,-0.158131 c -0.339919,-0.55 0.05697,-1 0.881966,-1 2.225337,0 2.964724,-1.854573 1.512526,-3.793805 -0.702729,-0.938407 -0.216006,-0.718231 1.081607,0.48928 1.979603,1.842147 2.151666,2.445651 1.069153,3.75 -1.468333,1.769233 -3.631423,2.033132 -4.545252,0.554525 z m 10.57023,-4.116492 c -2.401842,-3.939709 -2.804866,-6.37736 -0.513526,-3.106014 1.97588,2.820964 3.246667,2.813204 4.502202,-0.02749 0.828403,-1.874293 0.903382,-1.670785 0.449026,1.21875 -0.818922,5.208046 -2.094429,5.758395 -4.437702,1.914758 z m 8.92977,-0.883508 c -1.1,-1.1 -1.986316,-2.5625 -1.969591,-3.25 0.01688,-0.69372 0.484013,-0.471208 1.04969,0.5 1.133168,1.945531 5.919901,2.417205 5.919901,0.583333 0,-0.641666 0.261459,-0.905207 0.58102,-0.585646 0.782925,0.782924 -1.40227,4.752313 -2.616204,4.752313 -0.530649,0 -1.864816,-0.9 -2.964816,-2 z m 25.072578,-6.634859 c -2.79479,-3.553 -2.634,-5.241194 0.24187,-2.539455 4.41869,4.151138 7.6188,1.609626 7.73211,-6.140786 0.0464,-3.175411 0.0539,-3.170748 2.51917,1.5651 2.44165,4.690539 5.62725,6.336966 6.77199,3.5 0.31428,-0.778873 0.53414,-0.621248 0.58333,0.418213 0.2505,5.293257 -3.1326,6.380873 -5.71756,1.83811 -2.03943,-3.584047 -3.20349,-3.840706 -3.20349,-0.706323 0,5.094153 -5.53724,6.375058 -8.92742,2.065141 z m -27.072578,0.306994 c 0,-2.235027 3.04092,-3.720603 5.224177,-2.552159 2.413431,1.291629 2.251953,2.817296 -0.229503,2.16838 -1.10293,-0.288422 -2.67793,0.03381 -3.5,0.716064 -1.218478,1.011247 -1.494674,0.949846 -1.494674,-0.332285 z M 18.523417,41.662236 c -1.440512,-1.925828 -2.179859,-2.20719 -3.684259,-1.40206 -2.933491,1.569957 -3.25528,1.211071 -1.310261,-1.461309 2.498999,-3.433528 4.147365,-3.133046 5.906293,1.076661 1.828982,4.37737 1.503343,5.015491 -0.911773,1.786708 z M 128.99044,39.034191 c -2.70592,-4.378267 -2.78709,-6.104198 -0.13012,-2.766749 1.94729,2.446018 2.02239,2.458085 3.47776,0.55887 1.46788,-1.915521 1.4875,-1.914745 1.4875,0.05887 0,1.1 -0.60081,2.82166 -1.33514,3.825912 -1.24622,1.704306 -1.47932,1.592623 -3.5,-1.676903 z m 9,-2 c -2.70592,-4.378267 -2.78709,-6.104198 -0.13012,-2.766749 1.94729,2.446018 2.02239,2.458085 3.47776,0.55887 1.46788,-1.915521 1.4875,-1.914745 1.4875,0.05887 0,1.1 -0.60081,2.82166 -1.33514,3.825912 -1.24622,1.704306 -1.47932,1.592623 -3.5,-1.676903 z M 67.840895,32.076459 c -0.0084,-0.930041 0.434687,-1.969098 0.984687,-2.309017 1.265597,-0.782182 1.265597,0.541628 0,2.5 -0.835399,1.292687 -0.971491,1.266292 -0.984687,-0.190983 z m 56.984685,-3.868034 c 0,-0.582459 0.45,-0.780902 1,-0.440983 0.55,0.339919 1,0.816476 1,1.059017 0,0.242541 -0.45,0.440983 -1,0.440983 -0.55,0 -1,-0.476558 -1,-1.059017 z m -21.96086,-1.54176 c -0.0215,-0.605427 0.45819,-2.527426 1.06604,-4.271109 1.17203,-3.362091 3.49322,-5.128114 6.74018,-5.128114 1.97811,0 7.15464,5.217737 7.15464,7.211584 0,0.581973 -0.91174,-0.100954 -2.02609,-1.517617 -3.92998,-4.996171 -8.94117,-4.28481 -11.51615,1.63477 -0.75871,1.744195 -1.39709,2.675913 -1.41862,2.070486 z m 30.96086,-0.45824 c 0,-0.582459 0.45,-0.780902 1,-0.440983 0.55,0.339919 1,0.816476 1,1.059017 0,0.242541 -0.45,0.440983 -1,0.440983 -0.55,0 -1,-0.476558 -1,-1.059017 z m -10,-12 c 0,-1.13246 0.43035,-1.793049 0.95633,-1.467976 0.52598,0.325073 0.70283,1.251631 0.39301,2.059017 -0.79323,2.067113 -1.34934,1.823523 -1.34934,-0.591041 z m 9,-2 c 0,-1.13246 0.43035,-1.793049 0.95633,-1.467976 0.52598,0.325074 0.70283,1.251631 0.39301,2.059017 -0.79323,2.067113 -1.34934,1.823523 -1.34934,-0.591041 z"
     id="path4518" />
  <path
     style="fill:#fe1800"
     d="m 24.184259,59.517442 c -0.985646,-5.16561 -0.331988,-21.617228 0.90799,-22.852753 1.010544,-1.006916 2.345883,0.502884 3.186445,3.602753 0.468249,1.726832 0.382952,2.073794 -0.275802,1.121885 -0.546897,-0.790274 -1.488261,-1.047741 -2.206901,-0.603597 -0.940272,0.58112 -1.113573,3.609531 -0.694034,12.128115 0.30754,6.244479 0.430798,11.353597 0.273905,11.353597 -0.156892,0 -0.693114,-2.1375 -1.191603,-4.75 z m 16.676507,-0.184259 c -1.414697,-2.643384 -1.299063,-3.52963 0.28861,-2.211979 0.96927,0.804423 1.678207,0.770263 2.647178,-0.127556 1.07098,-0.992335 1.199951,-0.876835 0.676207,0.605581 -0.355949,1.007484 -0.647179,2.244984 -0.647179,2.75 0,1.627422 -1.898225,0.976898 -2.964816,-1.016046 z m -9.479628,-3.621297 c -0.376487,-2.006846 -0.459522,-3.873812 -0.184522,-4.148812 0.275,-0.275 0.808035,1.141966 1.184522,3.148812 0.376486,2.006847 0.459521,3.873813 0.184521,4.148813 -0.275,0.275 -0.808035,-1.141966 -1.184521,-3.148813 z m 18.38914,1.85289 c -0.758318,-0.988534 -0.985,-1.463738 -0.503738,-1.05601 0.481263,0.407728 1.478928,0.240128 2.217033,-0.372445 1.484466,-1.231997 1.77231,-0.0955 0.488425,1.928455 -0.643686,1.014725 -1.123307,0.905805 -2.20172,-0.5 z m 6.105477,-1.203584 c -1.428692,-2.669537 -1.319642,-3.562279 0.273621,-2.239988 0.963213,0.799396 1.628933,0.793511 2.44405,-0.02161 0.827009,-0.827009 0.972421,-0.554933 0.5555,1.039377 -0.796698,3.046576 -2.046952,3.513427 -3.273171,1.222217 z m 6.449827,-1.09375 c -0.339919,-0.55 0.09765,-1 0.972368,-1 0.874721,0 1.848432,-0.672415 2.163802,-1.494256 0.31537,-0.821841 0.977463,-1.244532 1.471319,-0.939312 1.264278,0.781367 -0.864037,4.433568 -2.583656,4.433568 -0.773189,0 -1.683914,-0.45 -2.023833,-1 z m 10.908474,-3.499343 c -0.923665,-1.40969 -1.393434,-2.84903 -1.043932,-3.198532 0.349502,-0.349502 0.635458,-0.110458 0.635458,0.531208 0,0.641667 0.9,1.166667 2,1.166667 1.1,0 2,0.648442 2,1.440983 0,2.628369 -1.8879,2.659737 -3.591526,0.05967 z M 52.840895,49.517442 c 0.01193,-2.142937 0.229302,-2.418875 0.984687,-1.25 1.264409,1.956534 1.264409,4 0,4 -0.55,0 -0.993109,-1.2375 -0.984687,-2.75 z m 29.604014,0.881855 c -1.615111,-1.784678 -1.572604,-1.84558 0.95138,-1.363089 1.635144,0.312577 2.976758,-0.0235 3.520348,-0.881855 0.560287,-0.884721 0.883864,-0.960159 0.893632,-0.20834 0.01311,1.008848 -2.594019,4.321429 -3.401128,4.321429 -0.150471,0 -1.034375,-0.840665 -1.964232,-1.868145 z m -5.54038,-2.715188 c 0.04798,-1.164943 0.284941,-1.4019 0.604167,-0.604167 0.288871,0.721875 0.253344,1.584375 -0.07895,1.916667 -0.332292,0.332291 -0.568641,-0.258334 -0.52522,-1.3125 z m 32.159591,-2.064268 c -0.6938,-0.289688 -1.69993,-1.345991 -2.23583,-2.347341 -0.89744,-1.676879 -0.73224,-1.729238 2.09226,-0.663109 2.67043,1.007976 3.24999,0.90677 4.48583,-0.783341 0.78056,-1.067477 1.44015,-3.767359 1.46576,-5.999738 l 0.0466,-4.05887 2.40971,4.626228 c 2.71262,5.207796 4.95534,6.629357 6.44031,4.082239 1.35676,-2.327197 1.37688,0.325054 0.0217,2.857274 -1.43654,2.684199 -2.56198,2.424802 -4.62389,-1.065741 -0.97468,-1.65 -2.03206,-3 -2.34974,-3 -0.31768,0 -1.00816,1.4625 -1.53439,3.25 -0.9395,3.191247 -3.24755,4.342775 -6.21826,3.102399 z M 31.904529,43.099229 c -0.08791,-2.971001 0.78895,-5.831787 1.787495,-5.831787 0.358855,0 1.204126,0.88335 1.878378,1.963 1.004617,1.608647 0.976826,1.867416 -0.153952,1.433496 -0.865201,-0.332009 -1.762751,0.520999 -2.406419,2.287 l -1.026554,2.816504 z M 19.009461,41.771668 c -1.237197,-2.715352 -3.088332,-3.199773 -4.983879,-1.304226 -0.735584,0.735584 -1.2,0.795567 -1.2,0.154988 0,-1.146602 3.226642,-4.354988 4.379767,-4.354988 0.843382,0 3.927373,7.026193 3.341255,7.612312 -0.217878,0.217877 -0.909592,-0.730762 -1.537143,-2.108086 z m 61.149454,0.995774 c 0.183334,-0.55 1.608334,-1 3.166667,-1 1.558333,0 2.983333,0.45 3.166667,1 0.183333,0.55 -1.241667,1 -3.166667,1 -1.925,0 -3.35,-0.45 -3.166667,-1 z m 48.851745,-3.99313 c -1.06725,-2.342377 -1.01465,-2.417962 0.87,-1.25 1.64751,1.020999 2.19604,0.9751 3.06976,-0.25687 0.8809,-1.242073 0.96163,-1.185022 0.46949,0.331787 -0.32688,1.007484 -0.59433,2.244984 -0.59433,2.75 0,1.931376 -2.73105,0.803913 -3.81492,-1.574917 z m 9,-2 c -1.06725,-2.342377 -1.01465,-2.417962 0.87,-1.25 1.64751,1.020999 2.19604,0.9751 3.06976,-0.25687 0.8809,-1.242073 0.96163,-1.185022 0.46949,0.331787 -0.32688,1.007484 -0.59433,2.244984 -0.59433,2.75 0,1.931376 -2.73105,0.803913 -3.81492,-1.574917 z M 67.825582,32.326459 c 0,-0.517541 0.444846,-1.215913 0.988546,-1.551938 0.56686,-0.350339 0.734507,0.05106 0.393011,0.940983 -0.664791,1.732417 -1.381557,2.049387 -1.381557,0.610955 z M 114.51982,21.735841 c -3.45275,-3.037586 -5.3872,-3.105475 -8.37979,-0.294085 -1.27295,1.195873 -2.31445,1.724314 -2.31445,1.174314 0,-0.55 1.10009,-2.033478 2.44464,-3.296617 3.10373,-2.915805 6.60011,-2.202274 9.55706,1.950377 2.57375,3.614498 2.35853,3.691207 -1.30746,0.466011 z"
     id="path4516" />
</svg>
